HIERARCHY
ROOT Hips
{
	OFFSET 0.000000 103.266502 0.000000
	CHANNELS 6 Xposition Yposition Zposition Xrotation Yrotation Zrotation 
	JOINT Spine
	{
		OFFSET -0.002400 12.777504 0.315300
		CHANNELS 3 Xrotation Yrotation Zrotation
		JOINT Spine1
		{
			OFFSET -0.002067 5.816869 0.032633
			CHANNELS 3 Xrotation Yrotation Zrotation
			JOINT Spine1_split
			{
				OFFSET -0.002067 5.816869 0.032633
				CHANNELS 3 Xrotation Yrotation Zrotation
				JOINT Spine2
				{
					OFFSET -0.002067 5.816869 0.032633
					CHANNELS 3 Xrotation Yrotation Zrotation
					JOINT Neck
					{
						OFFSET -0.003700 21.199493 -0.826900
						CHANNELS 3 Xrotation Yrotation Zrotation
						JOINT Head
						{
							OFFSET 0.000000 20.442200 4.834800
							CHANNELS 3 Xrotation Yrotation Zrotation
							JOINT HeadTop_End
							{
								OFFSET 0.000000 34.668396 4.968400
								CHANNELS 3 Xrotation Yrotation Zrotation
								End Site
								{
									OFFSET 0.000000 0.000000 0.000000
								}
							}
						}
					}
					JOINT LeftShoulder
					{
						OFFSET 3.288150 8.794197 -1.372250
						CHANNELS 3 Xrotation Yrotation Zrotation
						JOINT LeftShoulder_split
						{
							OFFSET 3.288150 8.794197 -1.372250
							CHANNELS 3 Xrotation Yrotation Zrotation
							JOINT LeftArm
							{
								OFFSET 11.953299 -2.279007 -0.146200
								CHANNELS 3 Xrotation Yrotation Zrotation
								JOINT LeftForeArm
								{
									OFFSET 18.448900 0.000000 0.000000
									CHANNELS 3 Xrotation Yrotation Zrotation
									JOINT LeftHand
									{
										OFFSET 29.527798 0.000000 0.000000
										CHANNELS 3 Xrotation Yrotation Zrotation
										JOINT LeftHandThumb1
										{
											OFFSET 10.739754 -2.369614 9.225399
											CHANNELS 3 Xrotation Yrotation Zrotation
											JOINT LeftHandThumb2
											{
												OFFSET 4.926170 -2.844131 2.844125
												CHANNELS 3 Xrotation Yrotation Zrotation
												JOINT LeftHandThumb3
												{
													OFFSET 4.614891 -2.664413 2.664409
													CHANNELS 3 Xrotation Yrotation Zrotation
													JOINT LeftHandThumb4
													{
														OFFSET 4.432465 -2.559082 2.559083
														CHANNELS 3 Xrotation Yrotation Zrotation
														End Site
														{
															OFFSET 0.000000 0.000000 0.000000
														}
													}
												}
											}
										}
										JOINT LeftHandIndex1
										{
											OFFSET 26.467674 0.187653 6.405298
											CHANNELS 3 Xrotation Yrotation Zrotation
											JOINT LeftHandIndex2
											{
												OFFSET 8.792900 0.000000 0.000000
												CHANNELS 3 Xrotation Yrotation Zrotation
												JOINT LeftHandIndex3
												{
													OFFSET 10.075203 0.000000 0.000000
													CHANNELS 3 Xrotation Yrotation Zrotation
													End Site
													{
														OFFSET 0.000000 0.000000 0.000000
													}
												}
											}
										}
										JOINT LeftHandMiddle1
										{
											OFFSET 25.764404 0.000000 0.000000
											CHANNELS 3 Xrotation Yrotation Zrotation
											JOINT LeftHandMiddle2
											{
												OFFSET 9.393974 0.000000 0.000000
												CHANNELS 3 Xrotation Yrotation Zrotation
												JOINT LeftHandMiddle3
												{
													OFFSET 10.771950 0.000000 0.000000
													CHANNELS 3 Xrotation Yrotation Zrotation
													End Site
													{
														OFFSET 0.000000 0.000000 0.000000
													}
												}
											}
										}
										JOINT LeftHandRing1
										{
											OFFSET 24.660927 0.144547 -6.225808
											CHANNELS 3 Xrotation Yrotation Zrotation
											JOINT LeftHandRing2
											{
												OFFSET 9.393799 0.000000 0.000000
												CHANNELS 3 Xrotation Yrotation Zrotation
												JOINT LeftHandRing3
												{
													OFFSET 9.928497 0.000000 0.000000
													CHANNELS 3 Xrotation Yrotation Zrotation
													End Site
													{
														OFFSET 0.000000 0.000000 0.000000
													}
												}
											}
										}
										JOINT LeftHandPinky1
										{
											OFFSET 23.655350 0.125290 -12.815412
											CHANNELS 3 Xrotation Yrotation Zrotation
											JOINT LeftHandPinky2
											{
												OFFSET 8.425102 0.000000 0.000000
												CHANNELS 3 Xrotation Yrotation Zrotation
												JOINT LeftHandPinky3
												{
													OFFSET 8.147003 0.000000 0.000000
													CHANNELS 3 Xrotation Yrotation Zrotation
													End Site
													{
														OFFSET 0.000000 0.000000 0.000000
													}
												}
											}
										}
									}
								}
							}
						}
					}
					JOINT RightShoulder
					{
						OFFSET -3.249400 8.794197 -1.372250
						CHANNELS 3 Xrotation Yrotation Zrotation
						JOINT RightShoulder_split
						{
							OFFSET -3.249400 8.794197 -1.372250
							CHANNELS 3 Xrotation Yrotation Zrotation
							JOINT RightArm
							{
								OFFSET -11.953299 -2.279007 -0.146200
								CHANNELS 3 Xrotation Yrotation Zrotation
								JOINT RightForeArm
								{
									OFFSET -18.448900 0.000000 0.000000
									CHANNELS 3 Xrotation Yrotation Zrotation
									JOINT RightHand
									{
										OFFSET -29.527802 0.000000 0.000000
										CHANNELS 3 Xrotation Yrotation Zrotation
										JOINT RightHandThumb1
										{
											OFFSET -10.739754 -2.369614 9.225399
											CHANNELS 3 Xrotation Yrotation Zrotation
											JOINT RightHandThumb2
											{
												OFFSET -4.926170 -2.844131 2.844125
												CHANNELS 3 Xrotation Yrotation Zrotation
												JOINT RightHandThumb3
												{
													OFFSET -4.614891 -2.664413 2.664409
													CHANNELS 3 Xrotation Yrotation Zrotation
													JOINT RightHandThumb4
													{
														OFFSET -4.432465 -2.559082 2.559083
														CHANNELS 3 Xrotation Yrotation Zrotation
														End Site
														{
															OFFSET 0.000000 0.000000 0.000000
														}
													}
												}
											}
										}
										JOINT RightHandIndex1
										{
											OFFSET -26.467674 0.187653 6.405298
											CHANNELS 3 Xrotation Yrotation Zrotation
											JOINT RightHandIndex2
											{
												OFFSET -8.792900 0.000000 0.000000
												CHANNELS 3 Xrotation Yrotation Zrotation
												JOINT RightHandIndex3
												{
													OFFSET -10.075203 0.000000 0.000000
													CHANNELS 3 Xrotation Yrotation Zrotation
													End Site
													{
														OFFSET 0.000000 0.000000 0.000000
													}
												}
											}
										}
										JOINT RightHandMiddle1
										{
											OFFSET -25.764404 0.000000 0.000000
											CHANNELS 3 Xrotation Yrotation Zrotation
											JOINT RightHandMiddle2
											{
												OFFSET -9.393974 0.000000 0.000000
												CHANNELS 3 Xrotation Yrotation Zrotation
												JOINT RightHandMiddle3
												{
													OFFSET -10.771950 0.000000 0.000000
													CHANNELS 3 Xrotation Yrotation Zrotation
													End Site
													{
														OFFSET 0.000000 0.000000 0.000000
													}
												}
											}
										}
										JOINT RightHandRing1
										{
											OFFSET -24.660927 0.144547 -6.225808
											CHANNELS 3 Xrotation Yrotation Zrotation
											JOINT RightHandRing2
											{
												OFFSET -9.393799 0.000000 0.000000
												CHANNELS 3 Xrotation Yrotation Zrotation
												JOINT RightHandRing3
												{
													OFFSET -9.928497 0.000000 0.000000
													CHANNELS 3 Xrotation Yrotation Zrotation
													End Site
													{
														OFFSET 0.000000 0.000000 0.000000
													}
												}
											}
										}
										JOINT RightHandPinky1
										{
											OFFSET -23.655350 0.125290 -12.815412
											CHANNELS 3 Xrotation Yrotation Zrotation
											JOINT RightHandPinky2
											{
												OFFSET -8.425102 0.000000 0.000000
												CHANNELS 3 Xrotation Yrotation Zrotation
												JOINT RightHandPinky3
												{
													OFFSET -8.147003 0.000000 0.000000
													CHANNELS 3 Xrotation Yrotation Zrotation
													End Site
													{
														OFFSET 0.000000 0.000000 0.000000
													}
												}
											}
										}
									}
								}
							}
						}
					}
				}
			}
		}
	}
	JOINT LeftUpLeg
	{
		OFFSET 11.394100 -6.187798 -0.413800
		CHANNELS 3 Xrotation Yrotation Zrotation
		JOINT LeftLeg
		{
			OFFSET 0.430247 -32.302673 3.732800
			CHANNELS 3 Xrotation Yrotation Zrotation
			JOINT LeftFoot
			{
				OFFSET -0.430247 -48.264931 -6.423300
				CHANNELS 3 Xrotation Yrotation Zrotation
				JOINT LeftToeBase
				{
					OFFSET 4.230900 -16.068199 23.438400
					CHANNELS 3 Xrotation Yrotation Zrotation
					JOINT LeftToe_End
					{
						OFFSET 4.510700 0.695400 19.974600
						CHANNELS 3 Xrotation Yrotation Zrotation
						End Site
						{
							OFFSET 0.000000 0.000000 0.000000
						}
					}
				}
			}
		}
	}
	JOINT RightUpLeg
	{
		OFFSET -11.333700 -6.187798 -0.413800
		CHANNELS 3 Xrotation Yrotation Zrotation
		JOINT RightLeg
		{
			OFFSET -0.430392 -32.302628 3.733000
			CHANNELS 3 Xrotation Yrotation Zrotation
			JOINT RightFoot
			{
				OFFSET 0.430392 -48.264973 -6.423500
				CHANNELS 3 Xrotation Yrotation Zrotation
				JOINT RightToeBase
				{
					OFFSET -4.230900 -16.068199 23.438400
					CHANNELS 3 Xrotation Yrotation Zrotation
					JOINT RightToe_End
					{
						OFFSET -4.510700 0.695400 19.974600
						CHANNELS 3 Xrotation Yrotation Zrotation
						End Site
						{
							OFFSET 0.000000 0.000000 0.000000
						}
					}
				}
			}
		}
	}
}
MOTION
Frames: 4
Frame Time: 0.016667
-16.797691 84.707260 -2.820749 -6.209652 -41.748811 2.048760 9.615104 6.451338 -1.383817 2.766067 -0.356991 -2.318342 0.000000 0.000000 0.000000 2.765116 -0.254301 -2.356229 2.319645 13.599721 3.258858 11.523876 19.676542 -2.051256 -0.000000 0.000000 -0.000001 2.217712 0.696461 -13.443604 0.000000 0.000000 0.000000 -68.029729 -0.403274 -40.075718 -0.000214 -108.716756 -0.000212 0.135991 -4.421004 -12.826695 -6.141211 -11.690804 -6.761690 9.914116 42.595525 3.409842 -0.422814 8.108086 27.509111 -0.000002 0.000001 -0.000003 0.255309 3.378218 -45.814334 5.654086 5.847762 -88.067448 -0.000001 0.000000 -0.000000 -0.461478 3.841590 -39.722679 6.450748 5.820354 -95.892864 -0.000002 0.000000 -0.000001 0.469721 4.966826 -39.799447 8.181043 5.368620 -113.502991 -0.000003 0.000000 0.000001 -3.762432 9.063699 -45.253821 5.342532 5.828999 -85.005317 0.000000 0.000000 0.000001 2.599455 11.718729 -12.158732 0.000000 0.000000 0.000000 -64.262928 18.736211 84.603156 0.003076 87.058172 -0.003069 -17.320419 37.211929 21.718815 -7.341087 13.749665 7.412319 9.855769 -44.489107 -3.903244 -0.115783 -14.513073 -28.973871 0.000001 0.000003 -0.000001 -0.124376 -2.384786 45.108857 4.500585 -4.654538 88.071157 -0.000000 -0.000000 -0.000000 -0.761625 -2.932905 39.031061 5.133881 -4.632759 95.881629 -0.000001 -0.000000 0.000000 0.154757 -4.068818 39.122658 6.509732 -4.273602 113.462877 -0.000000 0.000000 0.000002 -4.198875 -8.025510 44.637766 4.252909 -4.639632 85.014839 -0.000001 0.000001 -0.000001 -29.705893 5.740488 22.653538 49.943825 -7.590043 9.730187 -15.360585 -11.606238 -28.243070 -7.665782 0.000018 0.000002 -0.000000 0.000003 0.000000 -36.346811 -3.383867 -35.085350 58.699725 -10.061766 -8.671188 -10.995444 -4.328148 24.606059 0.008977 0.000026 0.018090 0.000000 -0.000000 -0.000000 
-17.559027 85.122955 -3.147442 -6.546944 -41.919678 1.958245 9.602990 6.307986 -1.289825 2.786419 -0.645106 -2.360986 0.000000 0.000000 0.000000 2.784643 -0.532872 -2.409948 2.357357 13.650863 3.291964 11.963592 19.954406 -2.414291 -0.000000 -0.000000 -0.000001 2.119629 1.326096 -13.029244 0.000000 0.000000 0.000000 -67.198802 -0.218704 -41.239183 -0.000040 -108.751283 -0.000030 0.302970 -4.918416 -12.653556 -6.141211 -11.690805 -6.761700 9.914119 42.595519 3.409850 -0.422808 8.108089 27.509108 -0.000000 0.000001 -0.000005 0.255310 3.378220 -45.814341 5.654085 5.847760 -88.067448 0.000004 0.000000 -0.000000 -0.461477 3.841595 -39.722679 6.450748 5.820355 -95.892857 -0.000001 -0.000001 0.000001 0.469721 4.966829 -39.799458 8.181042 5.368620 -113.502991 0.000001 -0.000000 0.000000 -3.762432 9.063702 -45.253821 5.342533 5.828999 -85.005317 -0.000000 -0.000000 0.000002 2.565276 11.280107 -12.138846 0.000000 0.000000 0.000000 -64.922082 18.398006 84.997913 -0.001186 87.809076 0.001194 -17.630002 37.319723 21.737752 -7.341087 13.749665 7.412323 9.855767 -44.489103 -3.903251 -0.115786 -14.513071 -28.973871 0.000001 -0.000000 -0.000002 -0.124376 -2.384786 45.108857 4.500585 -4.654538 88.071157 0.000001 0.000000 -0.000000 -0.761626 -2.932906 39.031055 5.133883 -4.632759 95.881629 -0.000002 0.000000 0.000000 0.154757 -4.068818 39.122658 6.509731 -4.273602 113.462870 0.000000 -0.000001 0.000001 -4.198877 -8.025513 44.637759 4.252915 -4.639631 85.014839 -0.000001 -0.000001 0.000001 -29.782995 5.309258 22.597502 50.206569 -7.878873 10.094845 -12.556464 -11.084112 -28.441078 -8.642184 -0.000101 0.008328 -0.000000 -0.000000 0.000000 -35.929640 -4.009001 -35.082413 58.469397 -10.000102 -8.406138 -11.538388 -4.023503 23.996434 0.006530 0.000019 0.014779 0.000000 0.000000 -0.000000 
-18.296272 85.599518 -3.445716 -6.719482 -42.086314 1.963256 9.581035 6.187478 -1.233462 2.771246 -0.888555 -2.411324 0.000000 0.000000 0.000000 2.769533 -0.770331 -2.469700 2.323234 13.688402 3.351658 12.263282 20.206068 -2.684244 0.000000 0.000000 0.000000 2.040253 1.891024 -12.727008 0.000000 0.000000 0.000000 -66.041891 -0.227478 -42.512720 -0.000083 -108.614686 -0.000078 0.616243 -5.150692 -12.859879 -6.141212 -11.690806 -6.761689 9.914118 42.595519 3.409853 -0.422814 8.108090 27.509106 0.000001 0.000004 -0.000006 0.255309 3.378219 -45.814344 5.654084 5.847761 -88.067455 0.000000 -0.000001 0.000001 -0.461479 3.841591 -39.722686 6.450749 5.820356 -95.892857 0.000001 0.000000 -0.000000 0.469721 4.966827 -39.799447 8.181044 5.368620 -113.502991 -0.000001 0.000000 -0.000000 -3.762434 9.063699 -45.253814 5.342534 5.828999 -85.005317 0.000001 0.000000 0.000001 2.522557 10.738720 -12.141173 0.000000 0.000000 0.000000 -65.351257 18.105131 85.470023 -0.016811 88.672733 0.016877 -17.925688 37.372080 21.709934 -7.341088 13.749667 7.412324 9.855767 -44.489103 -3.903248 -0.115783 -14.513071 -28.973874 -0.000002 -0.000001 -0.000000 -0.124376 -2.384784 45.108861 4.500585 -4.654540 88.071157 0.000001 0.000000 0.000001 -0.761625 -2.932904 39.031058 5.133885 -4.632759 95.881629 0.000000 0.000000 -0.000001 0.154757 -4.068818 39.122658 6.509733 -4.273601 113.462877 -0.000001 -0.000000 0.000002 -4.198876 -8.025511 44.637766 4.252914 -4.639631 85.014846 -0.000000 0.000000 -0.000000 -30.181933 4.744950 22.485162 50.773516 -8.104525 10.253932 -9.579641 -10.422951 -28.202893 -10.814799 0.014976 -0.296825 0.000000 0.000002 -0.000000 -35.475501 -4.645592 -34.953729 58.041370 -9.939467 -8.181836 -11.987950 -3.837241 23.401864 0.001136 0.000028 0.007930 0.000000 0.000001 0.000000 
-18.997677 86.110832 -3.700815 -6.741973 -42.264292 2.044181 9.547927 6.098951 -1.203654 2.720344 -1.070411 -2.460028 0.000000 0.000000 0.000000 2.719150 -0.949815 -2.525622 2.229912 13.710769 3.433356 12.372778 20.430351 -2.883341 0.000001 -0.000000 -0.000000 1.997481 2.324996 -12.601863 0.000000 0.000000 0.000000 -64.622517 -0.436637 -43.747751 0.000053 -108.319410 0.000067 1.063108 -5.154255 -13.436481 -6.141213 -11.690805 -6.761695 9.914120 42.595529 3.409854 -0.422813 8.108094 27.509106 0.000001 -0.000000 0.000001 0.255309 3.378217 -45.814337 5.654085 5.847761 -88.067455 0.000001 0.000001 -0.000000 -0.461477 3.841592 -39.722683 6.450749 5.820356 -95.892864 -0.000001 -0.000000 0.000001 0.469720 4.966827 -39.799454 8.181043 5.368618 -113.502991 0.000001 -0.000000 -0.000000 -3.762434 9.063699 -45.253818 5.342533 5.828996 -85.005317 0.000000 -0.000000 0.000004 2.474450 10.139573 -12.169915 0.000000 0.000000 0.000000 -65.449311 17.878882 85.928370 0.276609 89.657107 -0.275517 -18.193411 37.393455 21.742340 -7.341091 13.749668 7.412320 9.855768 -44.489100 -3.903245 -0.115782 -14.513071 -28.973871 0.000002 0.000001 -0.000001 -0.124376 -2.384786 45.108868 4.500585 -4.654537 88.071157 0.000000 0.000000 0.000000 -0.761625 -2.932905 39.031058 5.133885 -4.632761 95.881629 0.000001 -0.000000 0.000000 0.154758 -4.068818 39.122661 6.509732 -4.273602 113.462870 -0.000001 0.000000 -0.000000 -4.198875 -8.025512 44.637769 4.252913 -4.639632 85.014839 -0.000000 -0.000000 0.000000 -30.859990 4.163869 22.228743 51.793085 -7.796062 10.303923 -7.363985 -9.928934 -26.765457 -11.567569 0.122608 -1.725121 0.000000 0.000001 0.000000 -34.995970 -5.261200 -34.692570 57.455756 -9.881765 -8.007885 -12.348656 -3.765695 22.838660 -0.003881 -0.000002 0.001558 -0.000000 -0.000001 -0.000000 
